<?xml version="1.0" encoding="UTF-8" standalone="no"?>
<svg
   xmlns="http://www.w3.org/2000/svg"
   id="svg2335"
   version="1.1"
   viewBox="0 0 332.91303 29.368776"
   height="29.368776mm"
   width="332.91302mm">
  <defs
     id="defs2329" />
  <metadata
     id="metadata2332">
    <rdf:RDF>
      <cc:Work
         rdf:about="">
        <dc:format>image/svg+xml</dc:format>
        <dc:type
           rdf:resource="http://purl.org/dc/dcmitype/StillImage" />
        <dc:title></dc:title>
      </cc:Work>
    </rdf:RDF>
  </metadata>
  <g
     transform="translate(32.076254,95.32843)"
     id="layer1"
     inkscape:groupmode="layer"
     inkscape:label="Layer 1">
    <g
       transform="translate(-16.933336,0.26457999)"
       id="g3077">
      <rect
         id="rect2102"
         height="5.0270834"
         width="8.9958334"
         fill="#0084b5"
         y="-95.32843"
         x="-9.5866795"
         style="fill:#a33612;fill-opacity:1;stroke-width:0.264583" />
      <rect
         id="rect2104"
         height="5.0270834"
         width="8.9958334"
         fill="#0084b5"
         y="-71.515923"
         x="-9.5866795"
         style="fill:#a33612;fill-opacity:1;stroke-width:0.264583" />
      <polygon
         style="fill:#e3420c;fill-opacity:1"
         id="polygon2164"
         points="384,260 373,250 373,359 384,349 394,341.3 394,269 "
         fill="#00adef"
         transform="matrix(0.26458333,0,0,0.26458333,-99.280417,-161.47423)" />
      <polygon
         style="fill:#e3420c;fill-opacity:1"
         id="polygon2166"
         points="328,260 339,250 339,359 328,349 318,341.3 318,269 "
         fill="#00adef"
         transform="matrix(0.26458333,0,0,0.26458333,-99.280417,-161.47423)" />
    </g>
    <g
       transform="translate(-3.2341151,0.26457999)"
       id="g3111">
      <rect
         x="142.07417"
         y="-95.32843"
         fill="#0084b5"
         width="8.9958334"
         height="5.0270834"
         id="rect2106"
         style="fill:#a33612;fill-opacity:1;stroke-width:0.264583" />
      <rect
         x="142.07417"
         y="-71.515923"
         fill="#0084b5"
         width="8.9958334"
         height="5.0270834"
         id="rect2108"
         style="fill:#a33612;fill-opacity:1;stroke-width:0.264583" />
      <polygon
         style="fill:#e3420c;fill-opacity:1"
         fill="#00adef"
         points="384,349 394,341.3 394,269 384,260 373,250 373,359 "
         id="polygon2168"
         transform="matrix(0.26458333,0,0,0.26458333,52.380433,-161.47423)" />
      <polygon
         style="fill:#e3420c;fill-opacity:1"
         fill="#00adef"
         points="328,349 318,341.3 318,269 328,260 339,250 339,359 "
         id="polygon2170"
         transform="matrix(0.26458333,0,0,0.26458333,52.380433,-161.47423)" />
    </g>
    <g
       transform="translate(-16.018434)"
       id="g3084">
      <rect
         x="14.293024"
         y="-95.32843"
         fill="#0084b5"
         width="8.9958334"
         height="5.0270834"
         id="rect2110"
         style="fill:#a33612;fill-opacity:1;stroke-width:0.264583" />
      <rect
         x="14.293024"
         y="-83.1576"
         fill="#0084b5"
         width="8.9958334"
         height="5.0270834"
         id="rect2112"
         style="fill:#a33612;fill-opacity:1;stroke-width:0.264583" />
      <polygon
         style="fill:#e3420c;fill-opacity:1"
         fill="#00adef"
         points="590,315 590,305 590,296 590,270 600,261 611,251 611,360 590,360 590,341 "
         id="polygon2172"
         transform="matrix(0.26458333,0,0,0.26458333,-147.36739,-161.73882)" />
      <polygon
         style="fill:#e3420c;fill-opacity:1"
         fill="#00adef"
         points="666,271 656,262 645,252 645,316 656,306 666,298.3 "
         id="polygon2174"
         transform="matrix(0.26458333,0,0,0.26458333,-147.36739,-161.73882)" />
      <polygon
         style="fill:#e3420c;fill-opacity:1"
         fill="#00adef"
         points="666,317 656,308 645,298 645,362 666,362 666,344.3 "
         id="polygon2176"
         transform="matrix(0.26458333,0,0,0.26458333,-147.36739,-161.73882)" />
    </g>
    <polygon
       transform="matrix(0.26458333,0,0,0.26458333,-185.68708,-111.73258)"
       id="polygon2178"
       points="768,117 768,108 768,82 778,73 789,63 789,172 768,172 768,153 768,127 "
       fill="#00adef"
       style="fill:#e3420c;fill-opacity:1" />
    <polygon
       transform="matrix(0.26458333,0,0,0.26458333,-97.092027,-111.73258)"
       fill="#00adef"
       points="789,172 768,172 768,153 768,127 768,117 768,108 768,82 778,73 789,63 "
       id="polygon2180"
       style="fill:#e3420c;fill-opacity:1" />
    <g
       transform="translate(-2.5291937,0.26458254)"
       id="g3117">
      <rect
         x="166.16385"
         y="-95.328423"
         fill="#0084b5"
         width="8.9958334"
         height="5.0270834"
         id="rect2114"
         style="fill:#a33612;fill-opacity:1;stroke-width:0.264583" />
      <rect
         x="166.16385"
         y="-71.51593"
         fill="#0084b5"
         width="8.9958334"
         height="5.0270834"
         id="rect2116"
         style="fill:#a33612;fill-opacity:1;stroke-width:0.264583" />
      <polygon
         style="fill:#e3420c;fill-opacity:1"
         fill="#00adef"
         points="384,154.3 384,82 374,73 363,63 363,172 374,162 "
         id="polygon2182"
         transform="matrix(0.26458333,0,0,0.26458333,79.115944,-111.99716)" />
      <rect
         style="fill:#e3420c;fill-opacity:1;stroke-width:0.264583"
         x="160.6076"
         y="-95.328423"
         fill="#00adef"
         width="5.5562501"
         height="28.839582"
         id="rect2184" />
    </g>
    <g
       transform="translate(-1.5470985,0.26458724)"
       id="g3123">
      <polygon
         fill="#0084b5"
         points="340,438 340,478 350,487 360,497 360,438 "
         id="polygon2118"
         transform="matrix(0.26458333,0,0,0.26458333,94.461772,-211.21591)"
         style="fill:#a33612;fill-opacity:1" />
      <polygon
         fill="#0084b5"
         points="414,438 394,438 394,497 404,487 414,478 "
         id="polygon2120"
         transform="matrix(0.26458333,0,0,0.26458333,94.461772,-211.21591)"
         style="fill:#a33612;fill-opacity:1" />
      <rect
         x="191.56384"
         y="-84.480515"
         fill="#0084b5"
         width="5.5562501"
         height="17.991667"
         id="rect2122"
         style="fill:#a33612;fill-opacity:1;stroke-width:0.264583" />
      <polygon
         style="fill:#e3420c;fill-opacity:1"
         fill="#00adef"
         points="350,487 340,478 414,478 404,487 394,497 360,497 "
         id="polygon2186"
         transform="matrix(0.26458333,0,0,0.26458333,94.461777,-211.21591)" />
    </g>
    <g
       transform="translate(-1.3587747,0.26457999)"
       id="g3130">
      <rect
         x="214.05342"
         y="-83.42218"
         fill="#0084b5"
         width="8.9958334"
         height="5.0270834"
         id="rect2124"
         style="fill:#a33612;fill-opacity:1;stroke-width:0.264583" />
      <rect
         x="214.05342"
         y="-95.32843"
         fill="#0084b5"
         width="14.2875"
         height="5.0270834"
         id="rect2126"
         style="fill:#a33612;fill-opacity:1;stroke-width:0.264583" />
      <rect
         x="208.76173"
         y="-71.515923"
         fill="#0084b5"
         width="14.2875"
         height="5.0270834"
         id="rect2128"
         style="fill:#a33612;fill-opacity:1;stroke-width:0.264583" />
      <polygon
         style="fill:#e3420c;fill-opacity:1"
         fill="#00adef"
         points="755,332.6 755,326.7 755,321.4 755,306.2 745,300.9 734,295 734,359 745,353.1 755,347.8 "
         id="polygon2188"
         transform="matrix(0.26458333,0,0,0.26458333,28.845111,-161.47423)" />
      <polygon
         style="fill:#e3420c;fill-opacity:1"
         fill="#00adef"
         points="679,287.6 679,281.7 679,276.4 679,261.2 689,255.9 700,250 700,314 689,308.1 679,302.8 "
         id="polygon2190"
         transform="matrix(0.26458333,0,0,0.26458333,28.845111,-161.47423)" />
    </g>
    <g
       transform="translate(-2.4933301,0.26457999)"
       id="g3137">
      <rect
         id="rect2130"
         height="5.0270834"
         width="8.9958334"
         fill="#0084b5"
         y="-83.42218"
         x="239.98257"
         style="fill:#a33612;fill-opacity:1;stroke-width:0.264583" />
      <rect
         id="rect2132"
         height="5.0270834"
         width="14.2875"
         fill="#0084b5"
         y="-95.32843"
         x="239.98257"
         style="fill:#a33612;fill-opacity:1;stroke-width:0.264583" />
      <rect
         id="rect2134"
         height="5.0270834"
         width="14.2875"
         fill="#0084b5"
         y="-71.515923"
         x="234.69092"
         style="fill:#a33612;fill-opacity:1;stroke-width:0.264583" />
      <polygon
         style="fill:#e3420c;fill-opacity:1"
         id="polygon2192"
         points="755,321.4 755,306.2 745,300.9 734,295 734,359 745,353.1 755,347.8 755,332.6 755,326.7 "
         fill="#00adef"
         transform="matrix(0.26458333,0,0,0.26458333,54.774277,-161.47423)" />
      <polygon
         style="fill:#e3420c;fill-opacity:1"
         id="polygon2194"
         points="679,276.4 679,261.2 689,255.9 700,250 700,314 689,308.1 679,302.8 679,287.6 679,281.7 "
         fill="#00adef"
         transform="matrix(0.26458333,0,0,0.26458333,54.774277,-161.47423)" />
    </g>
    <g
       transform="translate(-1.5112201,0.26458254)"
       id="g3143">
      <rect
         x="263.79507"
         y="-95.328423"
         fill="#0084b5"
         width="14.2875"
         height="5.0270834"
         id="rect2136"
         style="fill:#a33612;fill-opacity:1;stroke-width:0.264583" />
      <rect
         x="263.79507"
         y="-71.51593"
         fill="#0084b5"
         width="14.2875"
         height="5.0270834"
         id="rect2138"
         style="fill:#a33612;fill-opacity:1;stroke-width:0.264583" />
      <rect
         x="263.79507"
         y="-83.157593"
         fill="#0084b5"
         width="9.7895832"
         height="4.4979167"
         id="rect2140"
         style="fill:#a33612;fill-opacity:1;stroke-width:0.264583" />
      <polygon
         style="fill:#e3420c;fill-opacity:1"
         fill="#00adef"
         points="399,153 399,127 399,117 399,108 399,82 409,73 420,63 420,172 409,162 "
         id="polygon2196"
         transform="matrix(0.26458333,0,0,0.26458333,152.67011,-111.99716)" />
    </g>
    <g
       transform="translate(-9.7148444e-7,0.26459105)"
       id="g3149">
      <polygon
         fill="#0084b5"
         points="360,497 360,438 340,438 340,478 350,487 "
         id="polygon2142"
         transform="matrix(0.26458333,0,0,0.26458333,191.29927,-211.21591)"
         style="fill:#a33612;fill-opacity:1" />
      <polygon
         fill="#0084b5"
         points="404,487 414,478 414,438 394,438 394,497 "
         id="polygon2144"
         transform="matrix(0.26458333,0,0,0.26458333,191.29927,-211.21591)"
         style="fill:#a33612;fill-opacity:1" />
      <rect
         x="288.40134"
         y="-84.480522"
         fill="#0084b5"
         width="5.5562501"
         height="17.991667"
         id="rect2146"
         style="fill:#a33612;fill-opacity:1;stroke-width:0.264583" />
      <polygon
         style="fill:#e3420c;fill-opacity:1"
         fill="#00adef"
         points="340,478 414,478 404,487 394,497 360,497 350,487 "
         id="polygon2198"
         transform="matrix(0.26458333,0,0,0.26458333,191.29928,-211.21591)" />
    </g>
    <g
       transform="translate(-14.583411,0.26458635)"
       id="g3091">
      <rect
         x="47.895107"
         y="-95.32843"
         fill="#0084b5"
         width="14.2875"
         height="5.0270834"
         id="rect2148"
         style="fill:#a33612;fill-opacity:1;stroke-width:0.264583" />
      <rect
         x="47.895107"
         y="-71.51593"
         fill="#0084b5"
         width="9.260417"
         height="5.0270834"
         id="rect2150"
         style="fill:#a33612;fill-opacity:1;stroke-width:0.264583" />
      <rect
         x="51.863857"
         y="-83.42218"
         fill="#0084b5"
         width="5.2916665"
         height="5.0270834"
         id="rect2152"
         style="fill:#a33612;fill-opacity:1;stroke-width:0.264583" />
      <polygon
         style="fill:#e3420c;fill-opacity:1"
         fill="#00adef"
         points="600,63 600,172 589,162 579,153 579,127 579,117 579,108 579,82 589,73 "
         id="polygon2200"
         transform="matrix(0.26458333,0,0,0.26458333,-110.85489,-111.99716)" />
      <polygon
         style="fill:#e3420c;fill-opacity:1"
         fill="#00adef"
         points="635,108 635,172 646,166.1 656,160.8 656,145.6 656,139.7 656,134.4 656,119.2 646,113.9 "
         id="polygon2202"
         transform="matrix(0.26458333,0,0,0.26458333,-110.85489,-111.99716)" />
    </g>
    <g
       transform="translate(-13.072155,0.26457637)"
       id="g3097">
      <polygon
         fill="#0084b5"
         points="59,63 93,63 103,73 113,82 39,82 49,73 "
         id="polygon2154"
         transform="matrix(0.26458333,0,0,0.26458333,56.361772,-111.99715)"
         style="fill:#a33612;fill-opacity:1" />
      <rect
         x="65.886772"
         y="-83.157593"
         fill="#0084b5"
         width="20.902082"
         height="4.7624998"
         id="rect2156"
         style="fill:#a33612;fill-opacity:1;stroke-width:0.264583" />
      <polygon
         style="fill:#e3420c;fill-opacity:1"
         fill="#00adef"
         points="113,172 113,82 103,73 93,63 93,172 "
         id="polygon2204"
         transform="matrix(0.26458333,0,0,0.26458333,56.361777,-111.99716)" />
      <polygon
         style="fill:#e3420c;fill-opacity:1"
         fill="#00adef"
         points="39,172 59,172 59,63 49,73 39,82 "
         id="polygon2206"
         transform="matrix(0.26458333,0,0,0.26458333,56.361777,-111.99716)" />
    </g>
    <g
       transform="translate(-11.296315,0.26457999)"
       id="g3105">
      <rect
         x="95.255531"
         y="-95.32843"
         fill="#0084b5"
         width="3.175"
         height="5.0270834"
         id="rect2158"
         style="fill:#a33612;fill-opacity:1;stroke-width:0.264583" />
      <polygon
         fill="#00adef"
         points="161,250 161,359 182,359 182,340 182,314 182,304 182,295 182,269 172,260 "
         id="polygon2160"
         transform="matrix(0.26458333,0,0,0.26458333,55.832612,-161.47423)"
         style="fill:#a33612;fill-opacity:1" />
      <rect
         x="103.98678"
         y="-95.32843"
         fill="#0084b5"
         width="3.175"
         height="5.0270834"
         id="rect2162"
         style="fill:#a33612;fill-opacity:1;stroke-width:0.264583" />
      <polygon
         style="fill:#e3420c;fill-opacity:1"
         fill="#00adef"
         points="128,314 128,304 128,295 128,269 138,260 149,250 149,359 128,359 128,340 "
         id="polygon2208"
         transform="matrix(0.26458333,0,0,0.26458333,55.83261,-161.47423)" />
      <polygon
         style="fill:#e3420c;fill-opacity:1"
         fill="#00adef"
         points="161,314 161,304 161,295 161,269 171,260 182,250 182,359 161,359 161,340 "
         id="polygon2210"
         transform="matrix(0.26458333,0,0,0.26458333,55.83261,-161.47423)" />
      <polygon
         style="fill:#e3420c;fill-opacity:1"
         fill="#00adef"
         points="215,314 215,304 215,295 215,269 205,260 194,250 194,359 215,359 215,340 "
         id="polygon2212"
         transform="matrix(0.26458333,0,0,0.26458333,55.83261,-161.47423)" />
    </g>
  </g>
</svg>
